<?xml version="1.0" standalone="no"?>
<!DOCTYPE svg PUBLIC "-//W3C//DTD SVG 20010904//EN"
 "http://www.w3.org/TR/2001/REC-SVG-20010904/DTD/svg10.dtd">
<svg version="1.0" xmlns="http://www.w3.org/2000/svg"
 width="50.000000pt" height="50.000000pt" viewBox="0 0 50.000000 50.000000"
 preserveAspectRatio="xMidYMid meet">

<g transform="translate(0.000000,50.000000) scale(0.100000,-0.100000)"
fill="#000000" stroke="none">
<path d="M105 396 c-41 -18 -83 -69 -91 -111 -10 -56 4 -102 44 -144 43 -45
95 -60 154 -44 26 7 50 7 76 0 58 -15 110 -1 153 42 66 66 65 159 -2 223 -45
43 -95 56 -153 40 -25 -6 -48 -7 -63 -1 -34 13 -83 11 -118 -5z m109 -12 c14
-5 12 -10 -9 -35 -45 -55 -45 -143 1 -198 l25 -30 -25 -7 c-85 -21 -176 50
-176 138 0 87 105 162 184 132z m74 -64 c13 -19 22 -48 22 -70 0 -41 -37 -105
-60 -105 -22 0 -60 64 -60 102 0 36 12 66 38 96 20 23 32 18 60 -23z"/>
</g>
</svg>
